<?xml version="1.0" encoding="UTF-8"?>
<!DOCTYPE svg PUBLIC "-//W3C//DTD SVG 1.1//EN" "http://www.w3.org/Graphics/SVG/1.1/DTD/svg11.dtd">
<!-- Creator: CorelDRAW -->
<svg xmlns="http://www.w3.org/2000/svg" xml:space="preserve" width="2.26566in" height="2.26565in" version="1.1" style="shape-rendering:geometricPrecision; text-rendering:geometricPrecision; image-rendering:optimizeQuality; fill-rule:evenodd; clip-rule:evenodd"
viewBox="0 0 2265.66 2265.65"
 xmlns:xlink="http://www.w3.org/1999/xlink"
 xmlns:xodm="http://www.corel.com/coreldraw/odm/2003">
 <defs>
  <style type="text/css">
   <![CDATA[
    .fil0 {fill:#0D2C1C}
    .fil1 {fill:#E9EED8;fill-rule:nonzero}
   ]]>
  </style>
 </defs>
 <g id="Layer_x0020_1">
  <metadata id="CorelCorpID_0Corel-Layer"/>
  <g id="_1674208623008">
   <circle class="fil0" cx="1132.83" cy="1132.83" r="1132.83"/>
   <path class="fil1" d="M1036.8 631.13c-223.01,0 -361.84,212.74 -442.86,409.85 -1.42,-3.16 -2.21,-6.48 -3.16,-9.16 -54.17,-162.99 -143.57,-376.68 -298.5,-376.68l-8.85 0c-29.54,1.42 -73.13,12.95 -109.13,57.33 -55.6,68.07 -72.65,210.53 -72.65,362.78 0,192.06 27.8,399.74 41.22,489.61l13.9 90.18 180.37 -27.32 -13.9 -89.71c-25.9,-172.15 -39.33,-346.2 -39.33,-479.82 0,-95.4 6.95,-169.94 20.37,-208.8 59.7,62.07 147.2,304.98 194.43,549.31 8.21,42.96 45.8,74.07 89.24,74.07l0.47 0c43.91,-0.48 81.5,-31.59 89.24,-75.02 28.27,-151.3 154.15,-583.9 359.15,-583.9 11.53,0 15.63,2.21 21.32,9.63 22.11,29.69 31.91,90.34 31.91,168.05 0,147.99 -35.22,358.52 -84.65,536.68l-24.64 88.44 175.94 48.49 24.48 -87.81c19.9,-72.65 90.66,-342.89 90.66,-574.74 0,-116.09 -17.53,-222.06 -68.39,-289.19 -40.75,-53.7 -98.56,-82.29 -166.63,-82.29z"/>
   <path id="_1" class="fil1" d="M1512.52 600.49c-24.17,0 -46.75,9.32 -63.96,25.43 -18,17.69 -27.64,41.22 -27.64,66.18l0 396.11c-23.69,-1.89 -47.22,-4.11 -70.44,-6.48l-90.66 -9.79 -19.9 181.47 90.66 9.63c23.69,2.84 54.17,5.69 90.34,7.9l0 318.41 182.26 0 0 -312.88c226.64,-2.69 498.3,-46.28 549.63,-231.7 7.43,-26.38 11.22,-52.28 11.22,-77.87 0,-54.01 -16.74,-105.03 -49.59,-149.88 -141.04,-192.84 -552.47,-214.64 -598.75,-216.54l-3.16 0zm464.5 395.64c-16.59,59.7 -181.31,92.55 -373.84,96.66l0 -301.66c143.41,18 312.24,63.02 363.73,133.78 7.27,10.11 14.22,23.06 14.22,42.48 0,8.37 -0.79,17.69 -4.11,28.74z"/>
  </g>
 </g>
</svg>
