<?xml version="1.0" encoding="UTF-8"?>
<!DOCTYPE svg PUBLIC "-//W3C//DTD SVG 1.1//EN" "http://www.w3.org/Graphics/SVG/1.1/DTD/svg11.dtd">
<!-- Creator: CorelDRAW -->
<svg xmlns="http://www.w3.org/2000/svg" xml:space="preserve" width="3.91478in" height="3.44618in" version="1.1" style="shape-rendering:geometricPrecision; text-rendering:geometricPrecision; image-rendering:optimizeQuality; fill-rule:evenodd; clip-rule:evenodd"
viewBox="0 0 3914.79 3446.18"
 xmlns:xlink="http://www.w3.org/1999/xlink"
 xmlns:xodm="http://www.corel.com/coreldraw/odm/2003">
 <defs>
  <style type="text/css">
   <![CDATA[
    .fil1 {fill:#0D2C1C}
    .fil0 {fill:#0D2C1C;fill-rule:nonzero}
    .fil2 {fill:#E9EED8;fill-rule:nonzero}
   ]]>
  </style>
 </defs>
 <g id="Layer_x0020_1">
  <metadata id="CorelCorpID_0Corel-Layer"/>
  <g id="_1674145225872">
   <g>
    <polygon class="fil0" points="409.53,2601.45 339.21,2601.45 204.81,2804.03 70.41,2601.45 -0,2601.45 -0,2980.94 94.41,2980.94 93.85,2789.52 178.58,2920.67 178.58,2921.23 231.04,2921.23 231.04,2920.67 315.22,2790.64 315.22,2980.94 409.53,2980.94 "/>
    <path id="_1" class="fil0" d="M668.48 2594.2c-114.41,0 -200.91,86.5 -200.91,197 0,110.5 86.5,197 200.91,197 114.41,0 200.91,-86.5 200.91,-197 0,-110.5 -86.5,-197 -200.91,-197zm0 305.82c-61.39,0 -105.48,-49.11 -105.48,-108.82 0,-59.71 44.09,-108.82 105.48,-108.82 61.39,0 105.48,49.11 105.48,108.82 0,59.71 -44.09,108.82 -105.48,108.82z"/>
    <path id="_2" class="fil0" d="M1275.66 2980.94l-89.29 -132.82c40.18,-23.44 64.18,-63.62 64.18,-113.29 0,-82.04 -63.06,-133.38 -157.37,-133.38l-165.75 0 0 379.49 94.32 0 0 -109.94 71.43 0 0.56 0 71.99 109.94 109.94 0zm-253.92 -296.33l69.76 0c36.27,0 64.74,19.53 64.74,50.22 0,31.25 -28.46,51.34 -64.74,51.34l-69.76 0 0 -101.57z"/>
    <polygon id="_3" class="fil0" points="1598.23,2683.49 1598.23,2601.45 1311.38,2601.45 1311.38,2980.94 1598.23,2980.94 1598.23,2898.9 1405.69,2898.9 1405.69,2833.05 1574.23,2833.05 1574.23,2752.69 1405.69,2752.69 1405.69,2683.49 "/>
    <polygon id="_4" class="fil0" points="1938.65,2683.49 1938.65,2601.45 1651.8,2601.45 1651.8,2980.94 1938.65,2980.94 1938.65,2898.9 1746.12,2898.9 1746.12,2833.05 1914.65,2833.05 1914.65,2752.69 1746.12,2752.69 1746.12,2683.49 "/>
    <polygon id="_5" class="fil0" points="2113.33,2897.79 2293.58,2646.1 2293.58,2601.45 1977.71,2601.45 1977.71,2684.61 2156.3,2684.61 1968.23,2936.29 1968.23,2980.94 2296.93,2980.94 2296.93,2897.79 "/>
    <path id="_6" class="fil0" d="M2646.29 2601.45l-152.91 0 0 379.49 94.32 0 0 -96.55 51.34 0c103.24,0 167.98,-55.25 167.98,-143.98 0,-85.39 -61.39,-138.96 -160.72,-138.96zm-1.68 200.35l-56.92 0 0 -117.75 56.92 0c41.3,0 68.65,22.32 68.65,56.37 0,37.39 -27.35,61.39 -68.65,61.39z"/>
    <path id="_7" class="fil0" d="M3043.08 2594.2c-114.41,0 -200.91,86.5 -200.91,197 0,110.5 86.5,197 200.91,197 114.41,0 200.91,-86.5 200.91,-197 0,-110.5 -86.5,-197 -200.91,-197zm0 305.82c-61.39,0 -105.48,-49.11 -105.48,-108.82 0,-59.71 44.09,-108.82 105.48,-108.82 61.39,0 105.48,49.11 105.48,108.82 0,59.71 -44.09,108.82 -105.48,108.82z"/>
    <polygon id="_8" class="fil0" points="3396.34,2896.67 3396.34,2601.45 3302.02,2601.45 3302.02,2980.94 3583.85,2980.94 3583.85,2896.67 "/>
    <polygon id="_9" class="fil0" points="3810.43,2601.45 3717.23,2766.64 3624.59,2601.45 3520.23,2601.45 3670.35,2866.53 3670.35,2980.94 3765.22,2980.94 3765.22,2866.53 3914.79,2601.45 "/>
    <polygon class="fil0" points="1228.06,3156.54 1117.98,3398.88 1007.9,3156.54 971.49,3156.54 1102.49,3443.25 1133.47,3443.25 1264.47,3156.54 "/>
    <polygon id="_1_7" class="fil0" points="1511,3187.09 1511,3156.54 1311.77,3156.54 1311.77,3441.16 1511,3441.16 1511,3410.6 1344.84,3410.6 1344.84,3315.17 1494.26,3315.17 1494.26,3284.62 1344.84,3284.62 1344.84,3187.09 "/>
    <polygon id="_2_8" class="fil0" points="1785.16,3156.54 1785.16,3383.81 1602.25,3156.54 1575.46,3156.54 1575.46,3441.16 1608.53,3441.16 1608.53,3216.81 1790.6,3441.16 1818.22,3441.16 1818.22,3156.54 "/>
    <polygon id="_3_9" class="fil0" points="2107.86,3156.54 1865.1,3156.54 1865.1,3187.09 1969.74,3187.09 1969.74,3441.16 2002.81,3441.16 2002.81,3187.09 2107.86,3187.09 "/>
    <path id="_4_10" class="fil0" d="M2391.64 3156.54l-33.07 0 0 162.82c0,55.67 -35.57,95.85 -88.73,95.85 -53.57,0 -88.73,-40.18 -88.73,-95.85l0 -162.82 -33.07 0 0 162.82c0,75.76 48.55,126.82 121.8,126.82 73.25,0 121.8,-51.06 121.8,-126.82l0 -162.82z"/>
    <path id="_5_11" class="fil0" d="M2653.66 3441.16l41.02 0 -86.22 -105.89c44.37,-10.46 73.25,-42.28 73.25,-87.48 0,-56.09 -44.79,-91.24 -108.82,-91.24l-107.57 0 0 284.62 33.07 0 0 -101.71 72.41 0 82.87 101.71zm-155.28 -254.06l73.67 0c44.37,0 77.02,22.6 77.02,60.69 0,38.09 -32.65,61.11 -77.02,61.11l-73.67 0 0 -121.8z"/>
    <polygon id="_6_12" class="fil0" points="2943.3,3187.09 2943.3,3156.54 2744.07,3156.54 2744.07,3441.16 2943.3,3441.16 2943.3,3410.6 2777.13,3410.6 2777.13,3315.17 2926.56,3315.17 2926.56,3284.62 2777.13,3284.62 2777.13,3187.09 "/>
   </g>
   <circle class="fil1" cx="1957.39" cy="1132.83" r="1132.83"/>
   <path class="fil2" d="M1861.36 631.13c-223.01,0 -361.84,212.74 -442.86,409.85 -1.42,-3.16 -2.21,-6.48 -3.16,-9.16 -54.17,-162.99 -143.57,-376.68 -298.5,-376.68l-8.85 0c-29.54,1.42 -73.13,12.95 -109.13,57.33 -55.6,68.07 -72.65,210.53 -72.65,362.78 0,192.06 27.8,399.74 41.22,489.61l13.9 90.18 180.37 -27.32 -13.9 -89.71c-25.9,-172.15 -39.33,-346.21 -39.33,-479.82 0,-95.4 6.95,-169.95 20.37,-208.8 59.7,62.07 147.2,304.98 194.43,549.31 8.21,42.96 45.8,74.07 89.24,74.07l0.47 0c43.91,-0.48 81.5,-31.59 89.24,-75.02 28.27,-151.3 154.15,-583.9 359.15,-583.9 11.53,0 15.63,2.21 21.32,9.63 22.11,29.69 31.91,90.34 31.91,168.05 0,147.99 -35.22,358.52 -84.65,536.68l-24.64 88.44 175.95 48.49 24.48 -87.82c19.9,-72.65 90.66,-342.89 90.66,-574.74 0,-116.09 -17.53,-222.06 -68.39,-289.19 -40.75,-53.7 -98.56,-82.29 -166.63,-82.29z"/>
   <path id="_1_13" class="fil2" d="M2337.08 600.49c-24.17,0 -46.75,9.32 -63.96,25.43 -18,17.69 -27.64,41.22 -27.64,66.18l0 396.11c-23.69,-1.89 -47.22,-4.11 -70.44,-6.48l-90.66 -9.79 -19.9 181.47 90.66 9.63c23.69,2.84 54.17,5.69 90.34,7.9l0 318.41 182.26 0 0 -312.88c226.64,-2.69 498.3,-46.28 549.63,-231.7 7.43,-26.38 11.22,-52.28 11.22,-77.87 0,-54.01 -16.74,-105.03 -49.59,-149.88 -141.04,-192.84 -552.47,-214.64 -598.75,-216.54l-3.16 0zm464.5 395.64c-16.59,59.7 -181.32,92.55 -373.84,96.66l0 -301.66c143.41,18 312.24,63.02 363.73,133.78 7.27,10.11 14.22,23.06 14.22,42.48 0,8.37 -0.79,17.69 -4.11,28.74z"/>
  </g>
 </g>
</svg>
